<svg width="48" height="24" viewBox="0 0 48 24" fill="none" xmlns="http://www.w3.org/2000/svg">
<path d="M47.6141 2.06273C47.4849 1.00611 46.7008 0.163958 45.7021 0C41.3249 0 6.30825 0 1.93106 0C0.83718 0.179692 0 1.17255 0 2.36911C0 4.29272 0 19.6783 0 21.6011C0 22.926 1.02432 24 2.28879 24C6.59393 24 41.0392 24 45.3444 24C46.5086 24 47.47 23.0883 47.6141 21.9083C47.6141 17.9393 47.6141 4.04679 47.6141 2.06273Z" fill="#636363"/>
<path d="M5.74268 4.82269H9.52117V19.3678H5.74268V4.82269Z" fill="white"/>
<path d="M16.6608 11.5226C16.3362 9.30587 16.1557 8.0737 16.1201 7.82776C15.9619 6.64114 15.8112 5.60853 15.6671 4.72746C15.34 4.72746 13.7079 4.72746 10.7682 4.72746V19.2725H14.0781L14.0896 9.66857L15.4825 19.2725H17.84L19.1608 9.45492L19.1732 19.2725H22.4722V4.72746H17.5361L16.6608 11.5226Z" fill="white"/>
<path d="M28.7101 7.75324C28.7515 7.93872 28.773 8.35939 28.773 9.01687C28.773 9.58079 28.773 14.0921 28.773 14.656C28.773 15.6241 28.7101 16.217 28.585 16.4356C28.4592 16.6542 28.1246 16.7627 27.5822 16.7627C27.5822 15.8079 27.5822 8.16976 27.5822 7.21499C27.9938 7.21499 28.2745 7.25888 28.4236 7.345C28.5726 7.43194 28.6687 7.56775 28.7101 7.75324ZM30.4167 19.1243C30.8664 19.0258 31.244 18.8519 31.5504 18.6043C31.8559 18.3559 32.0704 18.0122 32.1929 17.5725C32.3163 17.1336 32.3892 16.2617 32.3892 14.9575C32.3892 14.4474 32.3892 10.3608 32.3892 9.84991C32.3892 8.47366 32.3354 7.55119 32.2517 7.0825C32.1673 6.61298 31.9578 6.18652 31.6224 5.80396C31.2862 5.42139 30.796 5.14647 30.1518 4.9792C29.5067 4.81193 28.455 4.72746 26.6258 4.72746C26.4379 4.72746 25.4988 4.72746 23.8071 4.72746V19.2725H28.3846C29.4396 19.2394 30.117 19.1906 30.4167 19.1243Z" fill="white"/>
<path d="M38.4855 16.9506C38.4159 17.1353 38.1112 17.2289 37.881 17.2289C37.6557 17.2289 37.5059 17.1394 37.4297 16.9597C37.3535 16.7809 37.3162 16.3726 37.3162 15.7334C37.3162 15.3491 37.3162 12.2737 37.3162 11.8895C37.3162 11.227 37.3494 10.8138 37.4164 10.649C37.4827 10.4859 37.6284 10.4031 37.8536 10.4031C38.0839 10.4031 38.3927 10.4966 38.4722 10.6846C38.5509 10.8726 38.5906 11.2742 38.5906 11.8895C38.5906 12.1379 38.5906 13.38 38.5906 15.6166C38.5666 16.3826 38.5318 16.8272 38.4855 16.9506ZM33.676 19.1458H37.0777C37.2193 18.5902 37.2972 18.2813 37.3129 18.2192C37.621 18.5919 37.9596 18.8718 38.3314 19.0572C38.7016 19.2436 39.2556 19.3363 39.6845 19.3363C40.2816 19.3363 40.7966 19.1798 41.2314 18.866C41.6653 18.5529 41.9418 18.182 42.0594 17.7555C42.177 17.3282 42.2358 16.679 42.2358 15.8062C42.2358 15.398 42.2358 12.1337 42.2358 11.7255C42.2358 10.8477 42.2159 10.2747 42.177 10.0056C42.1381 9.73647 42.0222 9.46238 41.8292 9.18166C41.6363 8.90094 41.3556 8.68316 40.9879 8.52748C40.6202 8.37181 40.1863 8.29397 39.6862 8.29397C39.2514 8.29397 38.695 8.38092 38.324 8.55233C37.9538 8.72374 37.6176 8.98375 37.3162 9.33237C37.3162 9.01687 37.3162 7.44023 37.3162 4.60077H33.676V19.1458Z" fill="white"/>
</svg>
